<?xml version="1.0" encoding="UTF-8" standalone="no"?>
<!DOCTYPE svg PUBLIC "-//W3C//DTD SVG 1.1//EN" "http://www.w3.org/Graphics/SVG/1.1/DTD/svg11.dtd">
<svg width="100%" height="100%" viewBox="0 0 1684 382" version="1.1" xmlns="http://www.w3.org/2000/svg" xmlns:xlink="http://www.w3.org/1999/xlink" xml:space="preserve" xmlns:serif="http://www.serif.com/" style="fill-rule:evenodd;clip-rule:evenodd;stroke-linejoin:round;stroke-miterlimit:2;">
    <g transform="matrix(1,0,0,1,-118,-349)">
        <g transform="matrix(0.54734,0,0,0.435429,0,0)">
            <g transform="matrix(1.45597,0,0,1.83018,-128.141,-705.307)">
                <g>
                    <g transform="matrix(0.673212,0,0,0.673212,-399.885,506.4)">
                        <rect x="1181.1" y="472.441" width="236.22" height="236.22" style="fill:rgb(16,185,129);"/>
                    </g>
                    <path d="M395.247,1142.51L554.273,1142.51L554.273,983.479L713.3,983.479L713.3,1301.53L236.22,1301.53L236.22,983.479L395.247,983.479L395.247,1142.51Z" style="fill:rgb(99,102,241);"/>
                </g>
                <g transform="matrix(0.621476,0,0,0.621476,-43.6318,599.787)">
                    <path d="M1473.84,1024.93L1473.84,673.864L1614.41,673.864C1640.23,673.864 1661.78,677.692 1679.03,685.349C1696.29,693.006 1709.26,703.605 1717.94,717.148C1726.63,730.69 1730.97,746.261 1730.97,763.86C1730.97,777.573 1728.23,789.602 1722.75,799.944C1717.26,810.286 1709.75,818.743 1700.2,825.314C1690.66,831.885 1679.78,836.542 1667.55,839.285L1667.55,842.713C1680.92,843.285 1693.46,847.056 1705.17,854.027C1716.89,860.998 1726.4,870.741 1733.72,883.255C1741.03,895.768 1744.69,910.653 1744.69,927.91C1744.69,946.537 1740.09,963.137 1730.89,977.707C1721.69,992.278 1708.12,1003.79 1690.17,1012.25C1672.23,1020.71 1650.12,1024.93 1623.84,1024.93L1473.84,1024.93ZM1548.07,964.251L1608.58,964.251C1629.26,964.251 1644.35,960.28 1653.83,952.337C1663.32,944.395 1668.06,933.795 1668.06,920.539C1668.06,910.825 1665.72,902.254 1661.03,894.825C1656.35,887.397 1649.69,881.569 1641.06,877.34C1632.43,873.112 1622.18,870.998 1610.29,870.998L1548.07,870.998L1548.07,964.251ZM1548.07,820.772L1603.09,820.772C1613.26,820.772 1622.32,818.972 1630.26,815.372C1638.21,811.772 1644.49,806.658 1649.12,800.03C1653.75,793.401 1656.06,785.459 1656.06,776.202C1656.06,763.517 1651.58,753.289 1642.61,745.518C1633.63,737.747 1620.92,733.861 1604.47,733.861L1548.07,733.861L1548.07,820.772Z" style="fill:rgb(17,24,39);fill-rule:nonzero;"/>
                    <path d="M1791.49,1024.93L1791.49,761.631L1862.28,761.631L1862.28,807.572L1865.02,807.572C1869.82,791.23 1877.88,778.859 1889.19,770.46C1900.51,762.06 1913.54,757.86 1928.28,757.86C1931.94,757.86 1935.88,758.089 1940.11,758.546C1944.34,759.003 1948.05,759.631 1951.25,760.431L1951.25,825.229C1947.82,824.2 1943.08,823.286 1937.02,822.486C1930.96,821.686 1925.42,821.286 1920.39,821.286C1909.65,821.286 1900.08,823.6 1891.68,828.228C1883.28,832.857 1876.65,839.285 1871.8,847.513C1866.94,855.741 1864.51,865.227 1864.51,875.969L1864.51,1024.93L1791.49,1024.93Z" style="fill:rgb(17,24,39);fill-rule:nonzero;"/>
                    <path d="M2056.5,1029.9C2039.7,1029.9 2024.73,1026.96 2011.59,1021.08C1998.45,1015.19 1988.08,1006.45 1980.48,994.85C1972.88,983.25 1969.08,968.765 1969.08,951.394C1969.08,936.766 1971.76,924.481 1977.13,914.539C1982.51,904.596 1989.82,896.597 1999.08,890.54C2008.33,884.483 2018.88,879.912 2030.7,876.826C2042.53,873.741 2054.96,871.569 2067.99,870.312C2083.3,868.712 2095.64,867.198 2105.01,865.77C2114.39,864.341 2121.18,862.198 2125.41,859.341C2129.64,856.484 2131.76,852.256 2131.76,846.656L2131.76,845.628C2131.76,834.771 2128.36,826.371 2121.56,820.429C2114.76,814.486 2105.13,811.515 2092.67,811.515C2079.53,811.515 2069.07,814.4 2061.3,820.172C2053.53,825.943 2048.39,833.171 2045.87,841.856L1978.33,836.371C1981.76,820.372 1988.51,806.515 1998.56,794.801C2008.62,783.088 2021.62,774.059 2037.56,767.717C2053.5,761.374 2071.99,758.203 2093.01,758.203C2107.64,758.203 2121.67,759.917 2135.1,763.346C2148.53,766.774 2160.47,772.088 2170.93,779.288C2181.38,786.487 2189.64,795.716 2195.7,806.972C2201.75,818.229 2204.78,831.685 2204.78,847.342L2204.78,1024.93L2135.53,1024.93L2135.53,988.421L2133.47,988.421C2129.24,996.649 2123.58,1003.88 2116.5,1010.11C2109.41,1016.33 2100.9,1021.19 2090.96,1024.68C2081.01,1028.16 2069.53,1029.9 2056.5,1029.9ZM2077.41,979.507C2088.16,979.507 2097.64,977.365 2105.87,973.079C2114.1,968.794 2120.56,962.994 2125.24,955.68C2129.93,948.366 2132.27,940.081 2132.27,930.824L2132.27,902.882C2129.98,904.368 2126.87,905.711 2122.93,906.911C2118.99,908.111 2114.56,909.196 2109.64,910.168C2104.73,911.139 2099.81,911.996 2094.9,912.739C2089.99,913.482 2085.53,914.139 2081.53,914.71C2072.96,915.967 2065.47,917.967 2059.07,920.71C2052.67,923.453 2047.7,927.138 2044.16,931.767C2040.62,936.395 2038.85,942.138 2038.85,948.994C2038.85,958.937 2042.47,966.508 2049.73,971.708C2056.99,976.908 2066.22,979.507 2077.41,979.507Z" style="fill:rgb(17,24,39);fill-rule:nonzero;"/>
                    <path d="M2334.55,872.712L2334.55,1024.93L2261.52,1024.93L2261.52,761.631L2331.12,761.631L2331.12,808.086L2334.2,808.086C2340.03,792.773 2349.8,780.63 2363.52,771.659C2377.23,762.688 2393.86,758.203 2413.4,758.203C2431.68,758.203 2447.63,762.203 2461.23,770.202C2474.83,778.202 2485.4,789.602 2492.94,804.401C2500.48,819.2 2504.25,836.828 2504.25,857.284L2504.25,1024.93L2431.23,1024.93L2431.23,870.312C2431.34,854.199 2427.23,841.599 2418.89,832.514C2410.54,823.429 2399.06,818.886 2384.43,818.886C2374.6,818.886 2365.95,821 2358.46,825.229C2350.97,829.457 2345.15,835.599 2340.97,843.656C2336.8,851.713 2334.66,861.398 2334.55,872.712Z" style="fill:rgb(17,24,39);fill-rule:nonzero;"/>
                    <path d="M2658.7,1029.22C2638.7,1029.22 2620.62,1024.05 2604.45,1013.71C2588.28,1003.36 2575.48,988.107 2566.05,967.936C2556.62,947.766 2551.91,922.996 2551.91,893.625C2551.91,863.455 2556.76,838.342 2566.48,818.286C2576.19,798.23 2589.14,783.202 2605.31,773.202C2621.48,763.203 2639.22,758.203 2658.53,758.203C2673.27,758.203 2685.59,760.689 2695.47,765.66C2705.36,770.631 2713.36,776.802 2719.47,784.173C2725.59,791.544 2730.24,798.773 2733.44,805.858L2735.67,805.858L2735.67,673.864L2808.53,673.864L2808.53,1024.93L2736.53,1024.93L2736.53,982.764L2733.44,982.764C2730.01,990.078 2725.19,997.307 2718.96,1004.45C2712.73,1011.59 2704.67,1017.51 2694.79,1022.19C2684.9,1026.88 2672.87,1029.22 2658.7,1029.22ZM2681.85,971.108C2693.62,971.108 2703.59,967.879 2711.76,961.422C2719.93,954.966 2726.22,945.909 2730.62,934.252C2735.01,922.596 2737.21,908.939 2737.21,893.283C2737.21,877.626 2735.04,864.027 2730.7,852.484C2726.36,840.942 2720.07,832.028 2711.84,825.743C2703.62,819.457 2693.62,816.315 2681.85,816.315C2669.85,816.315 2659.73,819.572 2651.5,826.086C2643.28,832.6 2637.05,841.628 2632.82,853.17C2628.59,864.712 2626.48,878.083 2626.48,893.283C2626.48,908.596 2628.62,922.11 2632.91,933.824C2637.19,945.537 2643.42,954.68 2651.59,961.251C2659.76,967.822 2669.85,971.108 2681.85,971.108Z" style="fill:rgb(17,24,39);fill-rule:nonzero;"/>
                    <rect x="2868.35" y="673.864" width="73.025" height="351.07" style="fill:rgb(17,24,39);fill-rule:nonzero;"/>
                    <path d="M3118.63,1030.08C3092,1030.08 3069,1024.39 3049.63,1013.02C3030.26,1001.65 3015.32,985.764 3004.8,965.365C2994.29,944.966 2989.03,921.281 2989.03,894.311C2989.03,867.112 2994.29,843.313 3004.8,822.914C3015.32,802.515 3030.26,786.63 3049.63,775.259C3069,763.888 3092,758.203 3118.63,758.203C3145.25,758.203 3168.25,763.888 3187.62,775.259C3206.99,786.63 3221.94,802.515 3232.45,822.914C3242.96,843.313 3248.22,867.112 3248.22,894.311C3248.22,921.281 3242.96,944.966 3232.45,965.365C3221.94,985.764 3206.99,1001.65 3187.62,1013.02C3168.25,1024.39 3145.25,1030.08 3118.63,1030.08ZM3118.97,973.508C3131.08,973.508 3141.2,970.051 3149.31,963.137C3157.42,956.223 3163.57,946.766 3167.74,934.767C3171.91,922.767 3173.99,909.111 3173.99,893.797C3173.99,878.483 3171.91,864.827 3167.74,852.827C3163.57,840.828 3157.42,831.343 3149.31,824.371C3141.2,817.4 3131.08,813.915 3118.97,813.915C3106.74,813.915 3096.48,817.4 3088.2,824.371C3079.91,831.343 3073.68,840.828 3069.51,852.827C3065.34,864.827 3063.26,878.483 3063.26,893.797C3063.26,909.111 3065.34,922.767 3069.51,934.767C3073.68,946.766 3079.91,956.223 3088.2,963.137C3096.48,970.051 3106.74,973.508 3118.97,973.508Z" style="fill:rgb(17,24,39);fill-rule:nonzero;"/>
                    <path d="M3414.5,1129.16C3390.84,1129.16 3370.59,1125.93 3353.73,1119.47C3336.87,1113.02 3323.47,1104.25 3313.53,1093.16C3303.59,1082.07 3297.13,1069.62 3294.16,1055.79L3361.7,1046.7C3363.76,1051.96 3367.01,1056.88 3371.47,1061.45C3375.93,1066.02 3381.84,1069.7 3389.21,1072.5C3396.59,1075.3 3405.59,1076.7 3416.21,1076.7C3432.1,1076.7 3445.21,1072.85 3455.55,1065.13C3465.9,1057.42 3471.07,1044.53 3471.07,1026.48L3471.07,978.307L3467.98,978.307C3464.78,985.621 3459.98,992.535 3453.58,999.049C3447.18,1005.56 3438.95,1010.88 3428.9,1014.99C3418.84,1019.11 3406.84,1021.16 3392.9,1021.16C3373.13,1021.16 3355.16,1016.56 3338.99,1007.36C3322.82,998.164 3309.96,984.05 3300.42,965.022C3290.88,945.995 3286.1,921.91 3286.1,892.768C3286.1,862.941 3290.96,838.028 3300.68,818.029C3310.39,798.03 3323.33,783.059 3339.5,773.117C3355.67,763.174 3373.41,758.203 3392.73,758.203C3407.47,758.203 3419.81,760.689 3429.76,765.66C3439.7,770.631 3447.73,776.802 3453.84,784.173C3459.95,791.544 3464.67,798.773 3467.98,805.858L3470.72,805.858L3470.72,761.631L3543.24,761.631L3543.24,1027.51C3543.24,1049.9 3537.75,1068.65 3526.78,1083.73C3515.81,1098.82 3500.64,1110.16 3481.27,1117.76C3461.9,1125.36 3439.64,1129.16 3414.5,1129.16ZM3416.04,966.308C3427.81,966.308 3437.78,963.365 3445.95,957.48C3454.13,951.594 3460.41,943.138 3464.81,932.11C3469.21,921.081 3471.41,907.853 3471.41,892.426C3471.41,876.998 3469.24,863.598 3464.9,852.227C3460.55,840.856 3454.27,832.028 3446.04,825.743C3437.81,819.457 3427.81,816.315 3416.04,816.315C3404.04,816.315 3393.93,819.543 3385.7,826C3377.47,832.457 3371.24,841.399 3367.01,852.827C3362.79,864.255 3360.67,877.455 3360.67,892.426C3360.67,907.625 3362.82,920.739 3367.1,931.767C3371.39,942.795 3377.62,951.309 3385.79,957.308C3393.96,963.308 3404.04,966.308 3416.04,966.308Z" style="fill:rgb(17,24,39);fill-rule:nonzero;"/>
                    <path d="M3720.49,1030.08C3693.86,1030.08 3670.86,1024.39 3651.49,1013.02C3632.12,1001.65 3617.18,985.764 3606.66,965.365C3596.15,944.966 3590.89,921.281 3590.89,894.311C3590.89,867.112 3596.15,843.313 3606.66,822.914C3617.18,802.515 3632.12,786.63 3651.49,775.259C3670.86,763.888 3693.86,758.203 3720.49,758.203C3747.11,758.203 3770.11,763.888 3789.48,775.259C3808.85,786.63 3823.8,802.515 3834.31,822.914C3844.82,843.313 3850.08,867.112 3850.08,894.311C3850.08,921.281 3844.82,944.966 3834.31,965.365C3823.8,985.764 3808.85,1001.65 3789.48,1013.02C3770.11,1024.39 3747.11,1030.08 3720.49,1030.08ZM3720.83,973.508C3732.94,973.508 3743.06,970.051 3751.17,963.137C3759.28,956.223 3765.43,946.766 3769.6,934.767C3773.77,922.767 3775.85,909.111 3775.85,893.797C3775.85,878.483 3773.77,864.827 3769.6,852.827C3765.43,840.828 3759.28,831.343 3751.17,824.371C3743.06,817.4 3732.94,813.915 3720.83,813.915C3708.6,813.915 3698.34,817.4 3690.06,824.371C3681.77,831.343 3675.54,840.828 3671.37,852.827C3667.2,864.827 3665.12,878.483 3665.12,893.797C3665.12,909.111 3667.2,922.767 3671.37,934.767C3675.54,946.766 3681.77,956.223 3690.06,963.137C3698.34,970.051 3708.6,973.508 3720.83,973.508Z" style="fill:rgb(17,24,39);fill-rule:nonzero;"/>
                </g>
            </g>
        </g>
    </g>
</svg>
