<?xml version="1.0" encoding="UTF-8" standalone="no"?>
<!DOCTYPE svg PUBLIC "-//W3C//DTD SVG 1.1//EN" "http://www.w3.org/Graphics/SVG/1.1/DTD/svg11.dtd">
<svg width="100%" height="100%" viewBox="0 0 187 35" version="1.1" xmlns="http://www.w3.org/2000/svg" xmlns:xlink="http://www.w3.org/1999/xlink" xml:space="preserve" xmlns:serif="http://www.serif.com/" style="fill-rule:evenodd;clipRule:evenodd;stroke-linejoin:round;stroke-miterlimit:2;">
    <g transform="matrix(1,0,0,1,-124.411,-126.535)">
        <g>
            <g transform="matrix(1,0,0,1,-413.084,-764.705)">
                <path d="M610.026,925.273L610.026,918.388L596.086,918.388L596.086,892.07L588.346,892.07L588.346,925.273L610.026,925.273Z" style="fill:rgb(22,22,29);fill-rule:nonzero;"/>
                <path d="M629.948,926.03C639.884,926.03 647.99,918.266 647.99,908.623C647.99,898.955 639.884,891.24 629.948,891.24C619.962,891.24 611.881,898.955 611.881,908.623C611.881,918.266 619.962,926.03 629.948,926.03ZM629.948,918.95C624.235,918.95 619.621,914.629 619.621,908.647C619.621,902.641 624.186,898.32 629.948,898.32C635.685,898.32 640.275,902.641 640.275,908.647C640.275,914.629 635.685,918.95 629.948,918.95Z" style="fill:rgb(22,22,29);fill-rule:nonzero;"/>
                <path d="M668.18,926.03C679.093,926.03 685.441,918.706 685.319,907.036L667.838,907.036L667.838,913.213L676.725,913.213C675.773,916.85 672.575,918.95 668.131,918.95C662.76,918.95 658.293,915.239 658.293,908.647C658.293,902.226 662.76,898.32 668.131,898.32C672.257,898.32 675.382,900.249 676.994,903.496L684.855,903.496C683.463,895.659 675.334,891.24 668.351,891.24C658.512,891.24 650.553,898.955 650.553,908.623C650.553,918.266 658.512,926.03 668.18,926.03Z" style="fill:rgb(22,22,29);fill-rule:nonzero;"/>
                <path d="M705.924,926.03C715.861,926.03 723.966,918.266 723.966,908.623C723.966,898.955 715.861,891.24 705.924,891.24C695.939,891.24 687.858,898.955 687.858,908.623C687.858,918.266 695.939,926.03 705.924,926.03ZM705.924,918.95C700.211,918.95 695.597,914.629 695.597,908.647C695.597,902.641 700.163,898.32 705.924,898.32C711.662,898.32 716.252,902.641 716.252,908.647C716.252,914.629 711.662,918.95 705.924,918.95Z" style="fill:rgb(22,22,29);fill-rule:nonzero;"/>
            </g>
            <g transform="matrix(1,0,0,1,-236.047,-2.55795e-13)">
                <circle cx="377.853" cy="143.93" r="17.395" style="fill:rgb(243,18,96);"/>
            </g>
        </g>
    </g>
</svg>
