<?xml version="1.0" encoding="UTF-8" standalone="no"?>
<!DOCTYPE svg PUBLIC "-//W3C//DTD SVG 1.1//EN" "http://www.w3.org/Graphics/SVG/1.1/DTD/svg11.dtd">
<svg width="100%" height="100%" viewBox="0 0 2648 828" version="1.1" xmlns="http://www.w3.org/2000/svg" xmlns:xlink="http://www.w3.org/1999/xlink" xml:space="preserve" xmlns:serif="http://www.serif.com/" style="fill-rule:evenodd;clipRule:evenodd;stroke-linejoin:round;stroke-miterlimit:2;">
    <g transform="matrix(1,0,0,1,-4146,-826)">
        <g transform="matrix(1.00001,0,0,1,-0.207351,0)">
            <g id="logo" transform="matrix(0.999991,0,0,1,36.9567,237.6)">
                <g id="logomark">
                    <g transform="matrix(2.59259,0,0,2.33333,-1554.88,37.9901)">
                        <path d="M2303.15,236.22L2362.2,354.331L2244.09,354.331L2303.15,236.22Z" style="fill:rgb(243,18,96);"/>
                    </g>
                    <g transform="matrix(2.59259,0,0,2.33333,-1401.77,313.581)">
                        <path d="M2303.15,236.22L2362.2,354.331L2244.09,354.331L2303.15,236.22Z" style="fill:rgb(243,18,96);"/>
                    </g>
                    <g transform="matrix(2.59259,0,0,2.33333,-1707.98,313.581)">
                        <path d="M2303.15,236.22L2362.2,354.331L2244.09,354.331L2303.15,236.22Z" style="fill:rgb(196,10,75);"/>
                    </g>
                    <g transform="matrix(2.59259,0,0,2.33333,-1248.67,589.171)">
                        <path d="M2303.15,236.22L2362.2,354.331L2244.09,354.331L2303.15,236.22Z" style="fill:rgb(245,63,114);"/>
                    </g>
                    <g transform="matrix(2.59259,0,0,2.33333,-1248.67,37.9901)">
                        <path d="M2303.15,236.22L2362.2,354.331L2244.09,354.331L2303.15,236.22Z" style="fill:rgb(218,11,84);"/>
                    </g>
                    <g transform="matrix(2.59259,0,0,-2.33333,-1401.77,1415.94)">
                        <path d="M2303.15,236.22L2362.2,354.331L2244.09,354.331L2303.15,236.22Z" style="fill:rgb(243,35,101);"/>
                    </g>
                    <g transform="matrix(2.59259,0,0,-2.33333,-1401.77,1967.12)">
                        <path d="M2303.15,236.22L2362.2,354.331L2244.09,354.331L2303.15,236.22Z" style="fill:rgb(231,12,89);"/>
                    </g>
                    <g transform="matrix(2.59259,0,0,-2.33333,-1248.67,1691.53)">
                        <path d="M2303.15,236.22L2362.2,354.331L2244.09,354.331L2303.15,236.22Z" style="fill:rgb(231,12,89);"/>
                    </g>
                    <g transform="matrix(2.59259,0,0,-2.33333,-1707.98,1415.94)">
                        <path d="M2303.15,236.22L2362.2,354.331L2244.09,354.331L2303.15,236.22Z" style="fill:rgb(245,63,114);"/>
                    </g>
                </g>
                <g id="text" transform="matrix(10.6275,0,0,10.6275,-16988.6,-13773.9)">
                    <path d="M2086.5,1409.71L2086.5,1373.35L2101.52,1373.35C2104.24,1373.35 2106.6,1373.83 2108.58,1374.81C2110.56,1375.79 2112.09,1377.18 2113.17,1379C2114.25,1380.82 2114.79,1382.97 2114.79,1385.45C2114.79,1387.98 2114.24,1390.12 2113.14,1391.87C2112.03,1393.63 2110.47,1394.97 2108.45,1395.89C2106.42,1396.8 2104.03,1397.26 2101.26,1397.26L2091.76,1397.26L2091.76,1390.34L2099.62,1390.34C2100.95,1390.34 2102.06,1390.16 2102.95,1389.81C2103.85,1389.46 2104.52,1388.93 2104.99,1388.22C2105.45,1387.5 2105.68,1386.58 2105.68,1385.45C2105.68,1384.33 2105.45,1383.4 2104.99,1382.66C2104.52,1381.92 2103.84,1381.36 2102.94,1380.99C2102.04,1380.62 2100.94,1380.43 2099.62,1380.43L2095.29,1380.43L2095.29,1409.71L2086.5,1409.71ZM2106.97,1393.09L2116.03,1409.71L2106.44,1409.71L2097.56,1393.09L2106.97,1393.09Z" style="fill:rgb(36,36,46);fill-rule:nonzero;"/>
                    <path d="M2119.6,1409.71L2119.6,1373.35L2144.95,1373.35L2144.95,1380.48L2128.39,1380.48L2128.39,1387.94L2143.66,1387.94L2143.66,1395.1L2128.39,1395.1L2128.39,1402.57L2144.95,1402.57L2144.95,1409.71L2119.6,1409.71Z" style="fill:rgb(36,36,46);fill-rule:nonzero;"/>
                    <path d="M2163.9,1409.71L2150.46,1409.71L2150.46,1373.35L2163.88,1373.35C2167.59,1373.35 2170.78,1374.07 2173.46,1375.52C2176.14,1376.97 2178.21,1379.05 2179.67,1381.77C2181.12,1384.49 2181.85,1387.73 2181.85,1391.51C2181.85,1395.3 2181.12,1398.55 2179.67,1401.28C2178.22,1404 2176.16,1406.08 2173.47,1407.53C2170.78,1408.98 2167.59,1409.71 2163.9,1409.71ZM2159.25,1402.22L2163.56,1402.22C2165.6,1402.22 2167.32,1401.87 2168.74,1401.18C2170.15,1400.49 2171.22,1399.36 2171.95,1397.79C2172.68,1396.22 2173.04,1394.13 2173.04,1391.51C2173.04,1388.89 2172.68,1386.81 2171.94,1385.25C2171.21,1383.69 2170.13,1382.57 2168.7,1381.88C2167.28,1381.18 2165.52,1380.84 2163.44,1380.84L2159.25,1380.84L2159.25,1402.22Z" style="fill:rgb(36,36,46);fill-rule:nonzero;"/>
                    <path d="M2215.82,1398.4L2215.82,1382.44L2221.14,1382.44L2221.14,1409.71L2215.92,1409.71L2215.92,1404.99L2215.64,1404.99C2215.01,1406.44 2214.01,1407.65 2212.63,1408.62C2211.25,1409.58 2209.54,1410.06 2207.49,1410.06C2205.74,1410.06 2204.19,1409.68 2202.85,1408.9C2201.5,1408.13 2200.45,1406.98 2199.68,1405.45C2198.92,1403.92 2198.54,1402.03 2198.54,1399.78L2198.54,1382.44L2203.85,1382.44L2203.85,1399.14C2203.85,1401 2204.36,1402.48 2205.39,1403.58C2206.42,1404.68 2207.76,1405.24 2209.41,1405.24C2210.4,1405.24 2211.39,1404.99 2212.38,1404.49C2213.37,1403.99 2214.19,1403.24 2214.85,1402.23C2215.51,1401.23 2215.83,1399.95 2215.82,1398.4Z" style="fill:rgb(36,36,46);fill-rule:nonzero;"/>
                    <path d="M2228.26,1409.71L2228.26,1382.44L2233.57,1382.44L2233.57,1409.71L2228.26,1409.71ZM2230.94,1378.23C2230.02,1378.23 2229.23,1377.92 2228.57,1377.3C2227.92,1376.67 2227.59,1375.93 2227.59,1375.07C2227.59,1374.19 2227.92,1373.44 2228.57,1372.82C2229.23,1372.2 2230.02,1371.89 2230.94,1371.89C2231.87,1371.89 2232.66,1372.2 2233.31,1372.82C2233.97,1373.44 2234.3,1374.19 2234.3,1375.07C2234.3,1375.93 2233.97,1376.67 2233.31,1377.3C2232.66,1377.92 2231.87,1378.23 2230.94,1378.23Z" style="fill:rgb(36,36,46);fill-rule:nonzero;"/>
                </g>
            </g>
        </g>
    </g>
</svg>
