<?xml version="1.0" encoding="UTF-8" standalone="no"?>
<!DOCTYPE svg PUBLIC "-//W3C//DTD SVG 1.1//EN" "http://www.w3.org/Graphics/SVG/1.1/DTD/svg11.dtd">
<svg width="100%" height="100%" viewBox="0 0 766 828" version="1.1" xmlns="http://www.w3.org/2000/svg" xmlns:xlink="http://www.w3.org/1999/xlink" xml:space="preserve" xmlns:serif="http://www.serif.com/" style="fill-rule:evenodd;clipRule:evenodd;stroke-linejoin:round;stroke-miterlimit:2;">
    <g transform="matrix(1,0,0,1,-12519,-826)">
        <g transform="matrix(1.00001,0,0,1,-0.207351,0)">
            <g id="logomark" transform="matrix(0.999991,0,0,1,8409.38,237.6)">
                <g transform="matrix(2.59259,0,0,2.33333,-1554.88,37.9901)">
                    <path d="M2303.15,236.22L2362.2,354.331L2244.09,354.331L2303.15,236.22Z" style="fill:rgb(243,18,96);"/>
                </g>
                <g transform="matrix(2.59259,0,0,2.33333,-1401.77,313.581)">
                    <path d="M2303.15,236.22L2362.2,354.331L2244.09,354.331L2303.15,236.22Z" style="fill:rgb(243,18,96);"/>
                </g>
                <g transform="matrix(2.59259,0,0,2.33333,-1707.98,313.581)">
                    <path d="M2303.15,236.22L2362.2,354.331L2244.09,354.331L2303.15,236.22Z" style="fill:rgb(196,10,75);"/>
                </g>
                <g transform="matrix(2.59259,0,0,2.33333,-1248.67,589.171)">
                    <path d="M2303.15,236.22L2362.2,354.331L2244.09,354.331L2303.15,236.22Z" style="fill:rgb(245,63,114);"/>
                </g>
                <g transform="matrix(2.59259,0,0,2.33333,-1248.67,37.9901)">
                    <path d="M2303.15,236.22L2362.2,354.331L2244.09,354.331L2303.15,236.22Z" style="fill:rgb(218,11,84);"/>
                </g>
                <g transform="matrix(2.59259,0,0,-2.33333,-1401.77,1415.94)">
                    <path d="M2303.15,236.22L2362.2,354.331L2244.09,354.331L2303.15,236.22Z" style="fill:rgb(243,35,101);"/>
                </g>
                <g transform="matrix(2.59259,0,0,-2.33333,-1401.77,1967.12)">
                    <path d="M2303.15,236.22L2362.2,354.331L2244.09,354.331L2303.15,236.22Z" style="fill:rgb(231,12,89);"/>
                </g>
                <g transform="matrix(2.59259,0,0,-2.33333,-1248.67,1691.53)">
                    <path d="M2303.15,236.22L2362.2,354.331L2244.09,354.331L2303.15,236.22Z" style="fill:rgb(231,12,89);"/>
                </g>
                <g transform="matrix(2.59259,0,0,-2.33333,-1707.98,1415.94)">
                    <path d="M2303.15,236.22L2362.2,354.331L2244.09,354.331L2303.15,236.22Z" style="fill:rgb(245,63,114);"/>
                </g>
            </g>
        </g>
    </g>
</svg>
